G04 EAGLE Gerber X2 export*
G75*
%MOMM*%
%FSLAX34Y34*%
%LPD*%
%AMOC8*
5,1,8,0,0,1.08239X$1,22.5*%
G01*
%ADD10R,1.050000X1.080000*%
%ADD11R,0.300000X0.800000*%
%ADD12R,1.900000X1.200000*%
%ADD13P,1.539592X8X112.500000*%
%ADD14R,1.168400X1.600200*%
%ADD15C,0.304800*%
%ADD16C,0.200000*%
%ADD17C,0.756400*%

G36*
X108064Y3010D02*
X108064Y3010D01*
X108128Y3009D01*
X108203Y3030D01*
X108279Y3041D01*
X108338Y3067D01*
X108400Y3084D01*
X108466Y3125D01*
X108536Y3157D01*
X108585Y3199D01*
X108640Y3232D01*
X108692Y3290D01*
X108750Y3340D01*
X108786Y3394D01*
X108829Y3442D01*
X108862Y3511D01*
X108905Y3576D01*
X108924Y3638D01*
X108952Y3695D01*
X108963Y3765D01*
X108987Y3846D01*
X108988Y3931D01*
X108999Y4000D01*
X108999Y128000D01*
X108990Y128064D01*
X108991Y128128D01*
X108970Y128203D01*
X108959Y128279D01*
X108933Y128338D01*
X108916Y128400D01*
X108875Y128466D01*
X108843Y128536D01*
X108801Y128585D01*
X108768Y128640D01*
X108710Y128692D01*
X108660Y128750D01*
X108606Y128786D01*
X108558Y128829D01*
X108489Y128862D01*
X108424Y128905D01*
X108362Y128924D01*
X108305Y128952D01*
X108235Y128963D01*
X108154Y128987D01*
X108069Y128988D01*
X108000Y128999D01*
X4000Y128999D01*
X3936Y128990D01*
X3872Y128991D01*
X3797Y128970D01*
X3721Y128959D01*
X3662Y128933D01*
X3600Y128916D01*
X3534Y128875D01*
X3464Y128843D01*
X3415Y128801D01*
X3360Y128768D01*
X3308Y128710D01*
X3250Y128660D01*
X3214Y128606D01*
X3171Y128558D01*
X3138Y128489D01*
X3095Y128424D01*
X3076Y128362D01*
X3048Y128305D01*
X3037Y128235D01*
X3013Y128154D01*
X3012Y128069D01*
X3001Y128000D01*
X3001Y4000D01*
X3010Y3936D01*
X3009Y3872D01*
X3030Y3797D01*
X3041Y3721D01*
X3067Y3662D01*
X3084Y3600D01*
X3125Y3534D01*
X3157Y3464D01*
X3199Y3415D01*
X3232Y3360D01*
X3290Y3308D01*
X3340Y3250D01*
X3394Y3214D01*
X3442Y3171D01*
X3511Y3138D01*
X3576Y3095D01*
X3638Y3076D01*
X3695Y3048D01*
X3765Y3037D01*
X3846Y3013D01*
X3931Y3012D01*
X4000Y3001D01*
X108000Y3001D01*
X108064Y3010D01*
G37*
%LPC*%
G36*
X14323Y9363D02*
X14323Y9363D01*
X9263Y14423D01*
X9263Y21577D01*
X14559Y26873D01*
X14616Y26950D01*
X14681Y27021D01*
X14701Y27062D01*
X14728Y27098D01*
X14762Y27188D01*
X14804Y27275D01*
X14810Y27317D01*
X14827Y27362D01*
X14837Y27490D01*
X14851Y27579D01*
X14851Y32976D01*
X14842Y33040D01*
X14843Y33104D01*
X14822Y33179D01*
X14811Y33255D01*
X14785Y33314D01*
X14768Y33376D01*
X14727Y33442D01*
X14695Y33512D01*
X14653Y33561D01*
X14620Y33616D01*
X14562Y33668D01*
X14512Y33726D01*
X14458Y33762D01*
X14410Y33805D01*
X14341Y33838D01*
X14276Y33881D01*
X14214Y33900D01*
X14157Y33928D01*
X14087Y33939D01*
X14006Y33963D01*
X13921Y33964D01*
X13852Y33975D01*
X10268Y33975D01*
X9375Y34868D01*
X9375Y46932D01*
X10268Y47825D01*
X14099Y47825D01*
X14194Y47838D01*
X14290Y47843D01*
X14334Y47858D01*
X14378Y47865D01*
X14466Y47904D01*
X14557Y47936D01*
X14591Y47961D01*
X14635Y47981D01*
X14733Y48064D01*
X14806Y48117D01*
X21737Y55049D01*
X25680Y55049D01*
X25766Y55061D01*
X25853Y55064D01*
X25905Y55081D01*
X25959Y55089D01*
X26038Y55124D01*
X26121Y55151D01*
X26166Y55182D01*
X26216Y55205D01*
X26282Y55261D01*
X26354Y55310D01*
X26389Y55353D01*
X26430Y55388D01*
X26478Y55461D01*
X26533Y55528D01*
X26555Y55578D01*
X26585Y55624D01*
X26610Y55707D01*
X26644Y55787D01*
X26651Y55841D01*
X26667Y55894D01*
X26668Y55981D01*
X26679Y56067D01*
X26670Y56121D01*
X26671Y56176D01*
X26648Y56260D01*
X26634Y56345D01*
X26610Y56395D01*
X26596Y56448D01*
X26550Y56522D01*
X26513Y56600D01*
X26476Y56641D01*
X26448Y56688D01*
X26383Y56746D01*
X26325Y56811D01*
X26282Y56837D01*
X26238Y56877D01*
X26136Y56926D01*
X26062Y56971D01*
X25468Y57217D01*
X23217Y59468D01*
X21999Y62409D01*
X21999Y65591D01*
X23217Y68532D01*
X25468Y70783D01*
X28409Y72001D01*
X31591Y72001D01*
X34532Y70783D01*
X36783Y68532D01*
X38001Y65591D01*
X38001Y62409D01*
X36783Y59468D01*
X34532Y57217D01*
X33938Y56971D01*
X33863Y56927D01*
X33784Y56891D01*
X33742Y56856D01*
X33695Y56828D01*
X33636Y56764D01*
X33570Y56708D01*
X33540Y56662D01*
X33502Y56622D01*
X33463Y56545D01*
X33415Y56472D01*
X33399Y56419D01*
X33374Y56370D01*
X33358Y56285D01*
X33333Y56202D01*
X33332Y56147D01*
X33322Y56093D01*
X33330Y56007D01*
X33329Y55920D01*
X33344Y55867D01*
X33349Y55813D01*
X33381Y55732D01*
X33404Y55648D01*
X33433Y55602D01*
X33453Y55551D01*
X33507Y55482D01*
X33552Y55408D01*
X33593Y55372D01*
X33627Y55328D01*
X33697Y55277D01*
X33762Y55219D01*
X33811Y55195D01*
X33856Y55163D01*
X33938Y55134D01*
X34016Y55096D01*
X34066Y55088D01*
X34121Y55069D01*
X34235Y55062D01*
X34320Y55049D01*
X37323Y55049D01*
X37418Y55062D01*
X37514Y55067D01*
X37558Y55082D01*
X37602Y55089D01*
X37690Y55128D01*
X37781Y55160D01*
X37815Y55185D01*
X37859Y55205D01*
X37957Y55288D01*
X38030Y55341D01*
X45159Y62470D01*
X45216Y62547D01*
X45281Y62618D01*
X45301Y62659D01*
X45328Y62696D01*
X45362Y62786D01*
X45404Y62872D01*
X45410Y62914D01*
X45427Y62960D01*
X45437Y63087D01*
X45451Y63177D01*
X45451Y79383D01*
X45451Y79384D01*
X45461Y79511D01*
X45475Y79601D01*
X45475Y80981D01*
X45467Y81041D01*
X45467Y81070D01*
X45463Y81086D01*
X45461Y81151D01*
X45443Y81205D01*
X45435Y81260D01*
X45400Y81338D01*
X45374Y81419D01*
X45342Y81466D01*
X45319Y81517D01*
X45264Y81582D01*
X45216Y81653D01*
X45175Y81686D01*
X45136Y81731D01*
X45042Y81793D01*
X44976Y81846D01*
X44940Y81867D01*
X44467Y82340D01*
X44132Y82919D01*
X43959Y83565D01*
X43959Y87901D01*
X55000Y87901D01*
X55064Y87910D01*
X55128Y87909D01*
X55202Y87930D01*
X55279Y87941D01*
X55338Y87967D01*
X55400Y87984D01*
X55466Y88025D01*
X55536Y88057D01*
X55585Y88099D01*
X55640Y88132D01*
X55691Y88190D01*
X55750Y88240D01*
X55786Y88294D01*
X55829Y88342D01*
X55862Y88411D01*
X55905Y88476D01*
X55924Y88538D01*
X55952Y88595D01*
X55962Y88665D01*
X55987Y88746D01*
X55988Y88831D01*
X55999Y88900D01*
X55999Y90900D01*
X55990Y90964D01*
X55991Y91028D01*
X55970Y91103D01*
X55959Y91179D01*
X55933Y91238D01*
X55916Y91300D01*
X55875Y91366D01*
X55843Y91436D01*
X55801Y91485D01*
X55768Y91540D01*
X55710Y91592D01*
X55660Y91650D01*
X55606Y91686D01*
X55558Y91729D01*
X55489Y91762D01*
X55424Y91805D01*
X55362Y91824D01*
X55304Y91852D01*
X55235Y91862D01*
X55154Y91887D01*
X55069Y91888D01*
X55000Y91899D01*
X43959Y91899D01*
X43959Y96235D01*
X44132Y96881D01*
X44405Y97352D01*
X44421Y97392D01*
X44444Y97428D01*
X44473Y97523D01*
X44510Y97614D01*
X44514Y97657D01*
X44527Y97698D01*
X44528Y97796D01*
X44538Y97895D01*
X44530Y97937D01*
X44530Y97980D01*
X44504Y98075D01*
X44486Y98172D01*
X44467Y98210D01*
X44455Y98252D01*
X44403Y98336D01*
X44359Y98424D01*
X44330Y98455D01*
X44307Y98492D01*
X44234Y98558D01*
X44167Y98630D01*
X44130Y98652D01*
X44098Y98681D01*
X44009Y98724D01*
X43924Y98774D01*
X43883Y98785D01*
X43844Y98804D01*
X43760Y98817D01*
X43651Y98845D01*
X43591Y98843D01*
X43539Y98851D01*
X41577Y98851D01*
X41482Y98838D01*
X41386Y98833D01*
X41342Y98818D01*
X41298Y98811D01*
X41210Y98772D01*
X41119Y98740D01*
X41085Y98715D01*
X41041Y98695D01*
X40943Y98612D01*
X40870Y98559D01*
X38599Y96288D01*
X38542Y96211D01*
X38477Y96140D01*
X38457Y96099D01*
X38430Y96062D01*
X38396Y95972D01*
X38354Y95886D01*
X38348Y95844D01*
X38331Y95798D01*
X38321Y95671D01*
X38307Y95581D01*
X38307Y93944D01*
X37499Y91994D01*
X36006Y90501D01*
X34056Y89693D01*
X31944Y89693D01*
X29994Y90501D01*
X28501Y91994D01*
X27693Y93944D01*
X27693Y96056D01*
X28501Y98006D01*
X29994Y99499D01*
X31944Y100307D01*
X33581Y100307D01*
X33676Y100320D01*
X33772Y100325D01*
X33816Y100340D01*
X33860Y100347D01*
X33948Y100386D01*
X34039Y100418D01*
X34073Y100443D01*
X34117Y100463D01*
X34215Y100546D01*
X34288Y100599D01*
X38637Y104949D01*
X44476Y104949D01*
X44540Y104958D01*
X44604Y104957D01*
X44679Y104978D01*
X44755Y104989D01*
X44814Y105015D01*
X44876Y105032D01*
X44942Y105073D01*
X45012Y105105D01*
X45061Y105147D01*
X45116Y105180D01*
X45168Y105238D01*
X45226Y105288D01*
X45262Y105342D01*
X45305Y105390D01*
X45338Y105459D01*
X45381Y105524D01*
X45400Y105586D01*
X45428Y105643D01*
X45439Y105713D01*
X45463Y105794D01*
X45464Y105879D01*
X45475Y105948D01*
X45475Y106532D01*
X46368Y107425D01*
X54452Y107425D01*
X54516Y107434D01*
X54580Y107433D01*
X54655Y107454D01*
X54731Y107465D01*
X54790Y107491D01*
X54852Y107508D01*
X54918Y107549D01*
X54988Y107581D01*
X55037Y107623D01*
X55092Y107656D01*
X55144Y107714D01*
X55202Y107764D01*
X55238Y107818D01*
X55281Y107866D01*
X55314Y107935D01*
X55357Y108000D01*
X55376Y108062D01*
X55404Y108119D01*
X55415Y108189D01*
X55439Y108270D01*
X55440Y108355D01*
X55451Y108424D01*
X55451Y110763D01*
X58737Y114049D01*
X73000Y114049D01*
X73064Y114058D01*
X73128Y114057D01*
X73203Y114078D01*
X73279Y114089D01*
X73338Y114115D01*
X73400Y114132D01*
X73466Y114173D01*
X73536Y114205D01*
X73585Y114247D01*
X73640Y114280D01*
X73692Y114338D01*
X73750Y114388D01*
X73786Y114442D01*
X73829Y114490D01*
X73862Y114559D01*
X73905Y114624D01*
X73924Y114686D01*
X73952Y114743D01*
X73963Y114813D01*
X73987Y114894D01*
X73988Y114979D01*
X73999Y115048D01*
X73999Y117591D01*
X75217Y120532D01*
X77468Y122783D01*
X80409Y124001D01*
X83591Y124001D01*
X86532Y122783D01*
X88783Y120532D01*
X90001Y117591D01*
X90001Y114409D01*
X88783Y111468D01*
X86532Y109217D01*
X83591Y107999D01*
X81643Y107999D01*
X81611Y107995D01*
X81579Y107997D01*
X81472Y107975D01*
X81364Y107959D01*
X81334Y107946D01*
X81303Y107940D01*
X81206Y107888D01*
X81107Y107843D01*
X81082Y107822D01*
X81054Y107807D01*
X80975Y107731D01*
X80892Y107660D01*
X80875Y107633D01*
X80852Y107610D01*
X80798Y107515D01*
X80738Y107424D01*
X80728Y107393D01*
X80713Y107365D01*
X80687Y107259D01*
X80655Y107154D01*
X80655Y107122D01*
X80648Y107091D01*
X80653Y106981D01*
X80652Y106872D01*
X80660Y106841D01*
X80662Y106809D01*
X80698Y106706D01*
X80727Y106600D01*
X80744Y106573D01*
X80754Y106542D01*
X80808Y106469D01*
X80875Y106360D01*
X80911Y106328D01*
X80936Y106293D01*
X81888Y105341D01*
X81965Y105284D01*
X82036Y105219D01*
X82077Y105199D01*
X82114Y105172D01*
X82204Y105138D01*
X82290Y105096D01*
X82332Y105090D01*
X82378Y105073D01*
X82505Y105063D01*
X82595Y105049D01*
X86263Y105049D01*
X96970Y94341D01*
X99049Y92263D01*
X99049Y56737D01*
X95359Y53048D01*
X95340Y53022D01*
X95315Y53001D01*
X95255Y52909D01*
X95190Y52822D01*
X95178Y52792D01*
X95161Y52765D01*
X95129Y52660D01*
X95090Y52558D01*
X95088Y52526D01*
X95078Y52495D01*
X95077Y52386D01*
X95068Y52277D01*
X95075Y52245D01*
X95075Y52213D01*
X95104Y52108D01*
X95126Y52001D01*
X95141Y51972D01*
X95150Y51941D01*
X95207Y51848D01*
X95259Y51752D01*
X95281Y51729D01*
X95298Y51701D01*
X95379Y51628D01*
X95455Y51550D01*
X95483Y51534D01*
X95507Y51512D01*
X95606Y51465D01*
X95701Y51411D01*
X95732Y51403D01*
X95761Y51389D01*
X95850Y51375D01*
X95975Y51346D01*
X96024Y51348D01*
X96066Y51342D01*
X100317Y51342D01*
X100963Y51169D01*
X101542Y50834D01*
X102015Y50361D01*
X102350Y49782D01*
X102523Y49136D01*
X102523Y42799D01*
X95140Y42799D01*
X95076Y42790D01*
X95012Y42791D01*
X94938Y42770D01*
X94861Y42759D01*
X94802Y42733D01*
X94740Y42716D01*
X94674Y42675D01*
X94604Y42643D01*
X94555Y42601D01*
X94500Y42568D01*
X94449Y42510D01*
X94390Y42460D01*
X94354Y42406D01*
X94311Y42358D01*
X94278Y42289D01*
X94235Y42224D01*
X94216Y42162D01*
X94188Y42105D01*
X94178Y42035D01*
X94153Y41954D01*
X94152Y41869D01*
X94141Y41800D01*
X94141Y40799D01*
X93140Y40799D01*
X93076Y40790D01*
X93012Y40791D01*
X92937Y40770D01*
X92861Y40759D01*
X92802Y40733D01*
X92740Y40716D01*
X92674Y40675D01*
X92604Y40643D01*
X92555Y40601D01*
X92500Y40568D01*
X92448Y40510D01*
X92390Y40460D01*
X92354Y40406D01*
X92311Y40358D01*
X92278Y40289D01*
X92235Y40224D01*
X92216Y40162D01*
X92188Y40104D01*
X92178Y40035D01*
X92153Y39954D01*
X92152Y39869D01*
X92141Y39800D01*
X92141Y30258D01*
X87963Y30258D01*
X87317Y30431D01*
X86738Y30766D01*
X86508Y30996D01*
X86456Y31035D01*
X86411Y31081D01*
X86344Y31119D01*
X86283Y31165D01*
X86222Y31188D01*
X86166Y31220D01*
X86091Y31237D01*
X86019Y31265D01*
X85954Y31270D01*
X85891Y31284D01*
X85814Y31280D01*
X85738Y31286D01*
X85680Y31274D01*
X72426Y31274D01*
X71987Y31714D01*
X71935Y31753D01*
X71890Y31799D01*
X71823Y31837D01*
X71761Y31883D01*
X71701Y31906D01*
X71645Y31938D01*
X71570Y31956D01*
X71497Y31983D01*
X71433Y31988D01*
X71371Y32003D01*
X71293Y31999D01*
X71216Y32005D01*
X71153Y31992D01*
X71089Y31988D01*
X71016Y31963D01*
X70940Y31947D01*
X70883Y31917D01*
X70822Y31896D01*
X70766Y31855D01*
X70691Y31815D01*
X70630Y31755D01*
X70573Y31714D01*
X70134Y31274D01*
X57186Y31274D01*
X56293Y32167D01*
X56293Y36752D01*
X56284Y36816D01*
X56285Y36880D01*
X56264Y36955D01*
X56253Y37031D01*
X56227Y37090D01*
X56210Y37152D01*
X56169Y37218D01*
X56137Y37288D01*
X56095Y37337D01*
X56062Y37392D01*
X56004Y37444D01*
X55954Y37502D01*
X55900Y37538D01*
X55852Y37581D01*
X55783Y37614D01*
X55718Y37657D01*
X55656Y37676D01*
X55599Y37704D01*
X55529Y37715D01*
X55448Y37739D01*
X55363Y37740D01*
X55294Y37751D01*
X48937Y37751D01*
X46859Y39830D01*
X43147Y43542D01*
X43121Y43561D01*
X43100Y43586D01*
X43008Y43646D01*
X42921Y43711D01*
X42891Y43723D01*
X42864Y43740D01*
X42759Y43772D01*
X42657Y43811D01*
X42625Y43813D01*
X42594Y43823D01*
X42485Y43824D01*
X42376Y43833D01*
X42344Y43826D01*
X42312Y43826D01*
X42207Y43797D01*
X42100Y43775D01*
X42071Y43760D01*
X42040Y43751D01*
X41947Y43694D01*
X41851Y43642D01*
X41828Y43620D01*
X41800Y43603D01*
X41727Y43522D01*
X41649Y43446D01*
X41633Y43418D01*
X41611Y43394D01*
X41564Y43295D01*
X41510Y43200D01*
X41502Y43169D01*
X41488Y43140D01*
X41474Y43051D01*
X41445Y42926D01*
X41446Y42899D01*
X34650Y42899D01*
X34586Y42890D01*
X34522Y42891D01*
X34448Y42870D01*
X34371Y42859D01*
X34312Y42833D01*
X34250Y42816D01*
X34184Y42775D01*
X34114Y42743D01*
X34065Y42701D01*
X34010Y42668D01*
X33959Y42610D01*
X33900Y42560D01*
X33864Y42506D01*
X33821Y42458D01*
X33788Y42389D01*
X33745Y42324D01*
X33726Y42262D01*
X33698Y42205D01*
X33688Y42135D01*
X33663Y42054D01*
X33662Y41969D01*
X33651Y41900D01*
X33651Y40899D01*
X33649Y40899D01*
X33649Y41900D01*
X33640Y41964D01*
X33641Y42028D01*
X33620Y42103D01*
X33609Y42179D01*
X33583Y42238D01*
X33566Y42300D01*
X33525Y42366D01*
X33493Y42436D01*
X33451Y42485D01*
X33418Y42540D01*
X33360Y42592D01*
X33310Y42650D01*
X33256Y42686D01*
X33208Y42729D01*
X33139Y42762D01*
X33074Y42805D01*
X33012Y42824D01*
X32954Y42852D01*
X32885Y42862D01*
X32804Y42887D01*
X32719Y42888D01*
X32650Y42899D01*
X25859Y42899D01*
X25859Y46635D01*
X26032Y47281D01*
X26132Y47452D01*
X26148Y47492D01*
X26171Y47528D01*
X26200Y47622D01*
X26237Y47714D01*
X26241Y47757D01*
X26253Y47798D01*
X26255Y47896D01*
X26265Y47995D01*
X26257Y48037D01*
X26257Y48080D01*
X26231Y48175D01*
X26213Y48272D01*
X26194Y48310D01*
X26182Y48352D01*
X26130Y48436D01*
X26086Y48524D01*
X26057Y48555D01*
X26034Y48592D01*
X25961Y48658D01*
X25893Y48730D01*
X25856Y48752D01*
X25825Y48781D01*
X25736Y48824D01*
X25651Y48874D01*
X25609Y48885D01*
X25571Y48904D01*
X25486Y48917D01*
X25378Y48945D01*
X25318Y48943D01*
X25266Y48951D01*
X24677Y48951D01*
X24582Y48938D01*
X24486Y48933D01*
X24442Y48918D01*
X24398Y48911D01*
X24310Y48872D01*
X24219Y48840D01*
X24185Y48815D01*
X24141Y48795D01*
X24043Y48712D01*
X23970Y48659D01*
X23217Y47906D01*
X23160Y47829D01*
X23095Y47758D01*
X23075Y47717D01*
X23048Y47680D01*
X23014Y47590D01*
X22972Y47504D01*
X22966Y47462D01*
X22949Y47416D01*
X22939Y47289D01*
X22925Y47199D01*
X22925Y34868D01*
X22032Y33975D01*
X21948Y33975D01*
X21884Y33966D01*
X21820Y33967D01*
X21745Y33946D01*
X21669Y33935D01*
X21610Y33909D01*
X21548Y33892D01*
X21482Y33851D01*
X21412Y33819D01*
X21363Y33777D01*
X21308Y33744D01*
X21256Y33686D01*
X21198Y33636D01*
X21162Y33582D01*
X21119Y33534D01*
X21086Y33465D01*
X21043Y33400D01*
X21024Y33338D01*
X20996Y33281D01*
X20985Y33211D01*
X20961Y33130D01*
X20960Y33045D01*
X20949Y32976D01*
X20949Y27579D01*
X20962Y27484D01*
X20967Y27388D01*
X20982Y27345D01*
X20989Y27300D01*
X21028Y27213D01*
X21060Y27122D01*
X21085Y27087D01*
X21105Y27043D01*
X21188Y26946D01*
X21241Y26873D01*
X26537Y21577D01*
X26537Y14423D01*
X21477Y9363D01*
X14323Y9363D01*
G37*
%LPD*%
G36*
X55358Y43858D02*
X55358Y43858D01*
X55422Y43857D01*
X55497Y43878D01*
X55573Y43889D01*
X55632Y43915D01*
X55694Y43932D01*
X55760Y43973D01*
X55830Y44005D01*
X55879Y44047D01*
X55934Y44080D01*
X55986Y44138D01*
X56044Y44188D01*
X56080Y44242D01*
X56123Y44290D01*
X56156Y44359D01*
X56199Y44424D01*
X56218Y44486D01*
X56246Y44543D01*
X56257Y44613D01*
X56281Y44694D01*
X56282Y44779D01*
X56293Y44848D01*
X56293Y49433D01*
X57186Y50326D01*
X70134Y50326D01*
X70573Y49886D01*
X70625Y49847D01*
X70670Y49801D01*
X70737Y49763D01*
X70799Y49717D01*
X70859Y49694D01*
X70915Y49662D01*
X70990Y49644D01*
X71063Y49617D01*
X71127Y49612D01*
X71190Y49597D01*
X71267Y49601D01*
X71344Y49595D01*
X71407Y49608D01*
X71471Y49612D01*
X71544Y49637D01*
X71620Y49653D01*
X71677Y49683D01*
X71738Y49704D01*
X71794Y49746D01*
X71869Y49785D01*
X71930Y49844D01*
X71987Y49886D01*
X72426Y50326D01*
X77600Y50326D01*
X77695Y50339D01*
X77791Y50344D01*
X77834Y50359D01*
X77879Y50366D01*
X77967Y50405D01*
X78058Y50437D01*
X78092Y50462D01*
X78136Y50482D01*
X78234Y50565D01*
X78307Y50618D01*
X81982Y54293D01*
X82001Y54319D01*
X82026Y54340D01*
X82086Y54432D01*
X82151Y54519D01*
X82163Y54549D01*
X82180Y54576D01*
X82212Y54681D01*
X82251Y54783D01*
X82253Y54815D01*
X82263Y54846D01*
X82264Y54955D01*
X82273Y55064D01*
X82266Y55096D01*
X82266Y55128D01*
X82237Y55233D01*
X82215Y55340D01*
X82200Y55369D01*
X82191Y55400D01*
X82134Y55493D01*
X82082Y55589D01*
X82060Y55612D01*
X82043Y55640D01*
X81962Y55713D01*
X81886Y55791D01*
X81858Y55807D01*
X81834Y55829D01*
X81735Y55876D01*
X81640Y55930D01*
X81609Y55938D01*
X81580Y55952D01*
X81491Y55966D01*
X81366Y55995D01*
X81317Y55993D01*
X81275Y55999D01*
X80409Y55999D01*
X77468Y57217D01*
X75217Y59468D01*
X73999Y62409D01*
X73999Y65591D01*
X75217Y68532D01*
X77468Y70783D01*
X80409Y72001D01*
X83591Y72001D01*
X86532Y70783D01*
X88783Y68532D01*
X90001Y65591D01*
X90001Y62409D01*
X88783Y59468D01*
X86532Y57217D01*
X85938Y56971D01*
X85863Y56927D01*
X85784Y56891D01*
X85742Y56856D01*
X85695Y56828D01*
X85636Y56764D01*
X85570Y56708D01*
X85540Y56662D01*
X85502Y56622D01*
X85463Y56545D01*
X85415Y56472D01*
X85399Y56419D01*
X85374Y56370D01*
X85358Y56285D01*
X85333Y56202D01*
X85332Y56147D01*
X85322Y56093D01*
X85330Y56007D01*
X85329Y55920D01*
X85344Y55867D01*
X85349Y55813D01*
X85381Y55732D01*
X85404Y55648D01*
X85433Y55602D01*
X85454Y55551D01*
X85507Y55482D01*
X85553Y55408D01*
X85593Y55372D01*
X85627Y55328D01*
X85697Y55277D01*
X85762Y55219D01*
X85811Y55195D01*
X85856Y55163D01*
X85938Y55134D01*
X86016Y55096D01*
X86066Y55088D01*
X86121Y55069D01*
X86235Y55062D01*
X86320Y55049D01*
X88323Y55049D01*
X88418Y55062D01*
X88514Y55067D01*
X88558Y55082D01*
X88602Y55089D01*
X88690Y55128D01*
X88781Y55160D01*
X88815Y55185D01*
X88859Y55205D01*
X88957Y55288D01*
X89030Y55341D01*
X92659Y58970D01*
X92716Y59047D01*
X92781Y59118D01*
X92801Y59159D01*
X92828Y59196D01*
X92862Y59286D01*
X92904Y59372D01*
X92910Y59414D01*
X92927Y59460D01*
X92937Y59587D01*
X92951Y59677D01*
X92951Y89323D01*
X92938Y89418D01*
X92933Y89514D01*
X92918Y89558D01*
X92911Y89603D01*
X92872Y89690D01*
X92840Y89781D01*
X92815Y89815D01*
X92795Y89859D01*
X92712Y89957D01*
X92659Y90030D01*
X86013Y96676D01*
X85987Y96695D01*
X85966Y96720D01*
X85874Y96780D01*
X85787Y96845D01*
X85757Y96857D01*
X85730Y96874D01*
X85625Y96906D01*
X85523Y96945D01*
X85491Y96947D01*
X85460Y96957D01*
X85351Y96958D01*
X85242Y96967D01*
X85210Y96960D01*
X85178Y96960D01*
X85073Y96931D01*
X84966Y96909D01*
X84937Y96894D01*
X84906Y96885D01*
X84813Y96828D01*
X84717Y96776D01*
X84694Y96754D01*
X84666Y96737D01*
X84593Y96656D01*
X84515Y96580D01*
X84499Y96552D01*
X84477Y96528D01*
X84430Y96429D01*
X84376Y96334D01*
X84368Y96303D01*
X84354Y96274D01*
X84340Y96185D01*
X84311Y96060D01*
X84313Y96011D01*
X84307Y95969D01*
X84307Y93944D01*
X83499Y91994D01*
X82006Y90501D01*
X80056Y89693D01*
X77944Y89693D01*
X75994Y90501D01*
X74501Y91994D01*
X73693Y93944D01*
X73693Y95581D01*
X73680Y95676D01*
X73675Y95772D01*
X73660Y95816D01*
X73653Y95860D01*
X73614Y95948D01*
X73582Y96039D01*
X73557Y96073D01*
X73537Y96117D01*
X73454Y96215D01*
X73401Y96288D01*
X71130Y98559D01*
X71053Y98616D01*
X70982Y98681D01*
X70941Y98701D01*
X70904Y98728D01*
X70814Y98762D01*
X70728Y98804D01*
X70686Y98810D01*
X70640Y98827D01*
X70513Y98837D01*
X70423Y98851D01*
X68461Y98851D01*
X68418Y98845D01*
X68375Y98848D01*
X68279Y98825D01*
X68181Y98811D01*
X68142Y98794D01*
X68100Y98784D01*
X68014Y98736D01*
X67924Y98695D01*
X67892Y98667D01*
X67854Y98646D01*
X67785Y98576D01*
X67710Y98512D01*
X67687Y98476D01*
X67657Y98445D01*
X67610Y98359D01*
X67556Y98276D01*
X67543Y98235D01*
X67523Y98197D01*
X67502Y98101D01*
X67473Y98006D01*
X67473Y97963D01*
X67464Y97921D01*
X67471Y97823D01*
X67470Y97724D01*
X67481Y97683D01*
X67484Y97640D01*
X67515Y97560D01*
X67545Y97452D01*
X67576Y97401D01*
X67595Y97352D01*
X67868Y96881D01*
X68041Y96235D01*
X68041Y91899D01*
X57000Y91899D01*
X56936Y91890D01*
X56872Y91891D01*
X56798Y91870D01*
X56721Y91859D01*
X56662Y91833D01*
X56600Y91816D01*
X56534Y91775D01*
X56464Y91743D01*
X56415Y91701D01*
X56360Y91668D01*
X56309Y91610D01*
X56250Y91560D01*
X56214Y91506D01*
X56171Y91458D01*
X56138Y91389D01*
X56095Y91324D01*
X56076Y91262D01*
X56048Y91205D01*
X56038Y91135D01*
X56013Y91054D01*
X56012Y90969D01*
X56001Y90900D01*
X56001Y88900D01*
X56009Y88839D01*
X56009Y88808D01*
X56010Y88807D01*
X56009Y88772D01*
X56030Y88697D01*
X56041Y88621D01*
X56067Y88562D01*
X56084Y88500D01*
X56125Y88434D01*
X56157Y88364D01*
X56199Y88315D01*
X56232Y88260D01*
X56290Y88208D01*
X56340Y88150D01*
X56394Y88114D01*
X56442Y88071D01*
X56511Y88038D01*
X56576Y87995D01*
X56638Y87976D01*
X56696Y87948D01*
X56765Y87938D01*
X56846Y87913D01*
X56931Y87912D01*
X57000Y87901D01*
X68041Y87901D01*
X68041Y83565D01*
X67868Y82919D01*
X67675Y82585D01*
X67635Y82486D01*
X67588Y82390D01*
X67583Y82358D01*
X67569Y82323D01*
X67555Y82176D01*
X67541Y82085D01*
X67541Y78899D01*
X63500Y78899D01*
X58500Y78899D01*
X58437Y78890D01*
X58372Y78891D01*
X58298Y78871D01*
X58221Y78860D01*
X58163Y78833D01*
X58101Y78816D01*
X58035Y78775D01*
X57964Y78743D01*
X57915Y78702D01*
X57861Y78668D01*
X57809Y78610D01*
X57750Y78560D01*
X57715Y78506D01*
X57672Y78459D01*
X57638Y78389D01*
X57595Y78324D01*
X57577Y78262D01*
X57549Y78205D01*
X57538Y78135D01*
X57513Y78054D01*
X57512Y77970D01*
X57501Y77900D01*
X57510Y77836D01*
X57509Y77772D01*
X57530Y77697D01*
X57541Y77621D01*
X57567Y77562D01*
X57584Y77500D01*
X57625Y77434D01*
X57657Y77364D01*
X57699Y77315D01*
X57733Y77260D01*
X57790Y77208D01*
X57841Y77149D01*
X57894Y77114D01*
X57942Y77071D01*
X58012Y77037D01*
X58076Y76995D01*
X58138Y76976D01*
X58196Y76948D01*
X58265Y76937D01*
X58346Y76913D01*
X58431Y76911D01*
X58500Y76901D01*
X63500Y76901D01*
X67541Y76901D01*
X67541Y73565D01*
X67368Y72919D01*
X67033Y72340D01*
X66560Y71867D01*
X65981Y71532D01*
X65335Y71359D01*
X64499Y71359D01*
X64499Y73285D01*
X64497Y73301D01*
X64499Y73317D01*
X64477Y73441D01*
X64460Y73565D01*
X64453Y73579D01*
X64450Y73595D01*
X64395Y73708D01*
X64343Y73821D01*
X64333Y73834D01*
X64326Y73848D01*
X64241Y73941D01*
X64160Y74036D01*
X64146Y74045D01*
X64135Y74057D01*
X64029Y74122D01*
X63924Y74190D01*
X63908Y74195D01*
X63895Y74203D01*
X63774Y74236D01*
X63654Y74273D01*
X63638Y74273D01*
X63622Y74277D01*
X63497Y74275D01*
X63372Y74276D01*
X63357Y74272D01*
X63340Y74272D01*
X63221Y74235D01*
X63100Y74201D01*
X63087Y74193D01*
X63071Y74188D01*
X62967Y74119D01*
X62860Y74053D01*
X62850Y74041D01*
X62836Y74032D01*
X62756Y73937D01*
X62671Y73844D01*
X62664Y73829D01*
X62654Y73817D01*
X62619Y73735D01*
X62548Y73590D01*
X62548Y73589D01*
X62544Y73560D01*
X62532Y73534D01*
X62532Y73532D01*
X62514Y73372D01*
X62501Y73284D01*
X62501Y71359D01*
X61666Y71359D01*
X61259Y71468D01*
X61153Y71481D01*
X61048Y71501D01*
X61015Y71498D01*
X60979Y71502D01*
X60832Y71478D01*
X60741Y71468D01*
X60334Y71359D01*
X59499Y71359D01*
X59499Y73284D01*
X59478Y73436D01*
X59470Y73527D01*
X59469Y73528D01*
X59462Y73545D01*
X59460Y73563D01*
X59459Y73564D01*
X59459Y73565D01*
X59409Y73676D01*
X59363Y73789D01*
X59351Y73804D01*
X59343Y73822D01*
X59264Y73914D01*
X59188Y74010D01*
X59172Y74021D01*
X59160Y74036D01*
X59058Y74103D01*
X58958Y74174D01*
X58940Y74180D01*
X58924Y74190D01*
X58807Y74226D01*
X58692Y74266D01*
X58672Y74267D01*
X58654Y74273D01*
X58532Y74274D01*
X58410Y74281D01*
X58391Y74276D01*
X58372Y74276D01*
X58254Y74244D01*
X58135Y74216D01*
X58119Y74206D01*
X58100Y74201D01*
X57996Y74137D01*
X57890Y74077D01*
X57877Y74063D01*
X57860Y74053D01*
X57778Y73963D01*
X57693Y73875D01*
X57684Y73858D01*
X57671Y73844D01*
X57618Y73734D01*
X57560Y73626D01*
X57557Y73607D01*
X57548Y73590D01*
X57534Y73501D01*
X57503Y73350D01*
X57506Y73318D01*
X57501Y73285D01*
X57501Y71359D01*
X56665Y71359D01*
X56019Y71532D01*
X55440Y71867D01*
X55224Y72083D01*
X55147Y72140D01*
X55076Y72205D01*
X55035Y72225D01*
X54999Y72252D01*
X54909Y72286D01*
X54822Y72328D01*
X54780Y72334D01*
X54735Y72351D01*
X54607Y72361D01*
X54518Y72375D01*
X52548Y72375D01*
X52484Y72366D01*
X52420Y72367D01*
X52345Y72346D01*
X52269Y72335D01*
X52210Y72309D01*
X52148Y72292D01*
X52082Y72251D01*
X52012Y72219D01*
X51963Y72177D01*
X51908Y72144D01*
X51856Y72086D01*
X51798Y72036D01*
X51762Y71982D01*
X51719Y71934D01*
X51686Y71865D01*
X51643Y71800D01*
X51624Y71738D01*
X51596Y71681D01*
X51585Y71611D01*
X51561Y71530D01*
X51560Y71445D01*
X51549Y71376D01*
X51549Y60237D01*
X44018Y52707D01*
X43980Y52655D01*
X43934Y52610D01*
X43895Y52543D01*
X43849Y52481D01*
X43826Y52421D01*
X43794Y52365D01*
X43777Y52290D01*
X43749Y52217D01*
X43744Y52153D01*
X43730Y52091D01*
X43733Y52013D01*
X43728Y51936D01*
X43741Y51873D01*
X43744Y51809D01*
X43769Y51736D01*
X43785Y51660D01*
X43815Y51603D01*
X43836Y51542D01*
X43878Y51486D01*
X43918Y51411D01*
X43977Y51350D01*
X43979Y51347D01*
X43993Y51324D01*
X44001Y51318D01*
X44018Y51293D01*
X51170Y44141D01*
X51247Y44084D01*
X51318Y44019D01*
X51359Y43999D01*
X51396Y43972D01*
X51486Y43938D01*
X51572Y43896D01*
X51614Y43890D01*
X51660Y43873D01*
X51787Y43863D01*
X51877Y43849D01*
X55294Y43849D01*
X55358Y43858D01*
G37*
%LPC*%
G36*
X90523Y9363D02*
X90523Y9363D01*
X85463Y14423D01*
X85463Y21577D01*
X90523Y26637D01*
X97677Y26637D01*
X102737Y21577D01*
X102737Y14423D01*
X97677Y9363D01*
X90523Y9363D01*
G37*
%LPD*%
%LPC*%
G36*
X65123Y9363D02*
X65123Y9363D01*
X60063Y14423D01*
X60063Y21577D01*
X65123Y26637D01*
X72277Y26637D01*
X77337Y21577D01*
X77337Y14423D01*
X72277Y9363D01*
X65123Y9363D01*
G37*
%LPD*%
%LPC*%
G36*
X28409Y107999D02*
X28409Y107999D01*
X25468Y109217D01*
X23217Y111468D01*
X21999Y114409D01*
X21999Y117591D01*
X23217Y120532D01*
X25468Y122783D01*
X28409Y124001D01*
X31591Y124001D01*
X34532Y122783D01*
X36783Y120532D01*
X38001Y117591D01*
X38001Y114409D01*
X36783Y111468D01*
X34532Y109217D01*
X31591Y107999D01*
X28409Y107999D01*
G37*
%LPD*%
%LPC*%
G36*
X96139Y30258D02*
X96139Y30258D01*
X96139Y38801D01*
X102523Y38801D01*
X102523Y32464D01*
X102350Y31818D01*
X102015Y31239D01*
X101542Y30766D01*
X100963Y30431D01*
X100317Y30258D01*
X96139Y30258D01*
G37*
%LPD*%
%LPC*%
G36*
X45299Y19999D02*
X45299Y19999D01*
X45299Y27653D01*
X47298Y27653D01*
X52953Y21998D01*
X52953Y19999D01*
X45299Y19999D01*
G37*
%LPD*%
%LPC*%
G36*
X33647Y19999D02*
X33647Y19999D01*
X33647Y21998D01*
X39302Y27653D01*
X41301Y27653D01*
X41301Y19999D01*
X33647Y19999D01*
G37*
%LPD*%
%LPC*%
G36*
X45299Y8347D02*
X45299Y8347D01*
X45299Y16001D01*
X52953Y16001D01*
X52953Y14002D01*
X47298Y8347D01*
X45299Y8347D01*
G37*
%LPD*%
%LPC*%
G36*
X39302Y8347D02*
X39302Y8347D01*
X33647Y14002D01*
X33647Y16001D01*
X41301Y16001D01*
X41301Y8347D01*
X39302Y8347D01*
G37*
%LPD*%
%LPC*%
G36*
X35649Y32959D02*
X35649Y32959D01*
X35649Y38901D01*
X41441Y38901D01*
X41441Y35165D01*
X41268Y34519D01*
X40933Y33940D01*
X40460Y33467D01*
X39881Y33132D01*
X39235Y32959D01*
X35649Y32959D01*
G37*
%LPD*%
%LPC*%
G36*
X28065Y32959D02*
X28065Y32959D01*
X27419Y33132D01*
X26840Y33467D01*
X26367Y33940D01*
X26032Y34519D01*
X25859Y35165D01*
X25859Y38901D01*
X31651Y38901D01*
X31651Y32959D01*
X28065Y32959D01*
G37*
%LPD*%
%LPC*%
G36*
X43299Y17999D02*
X43299Y17999D01*
X43299Y18001D01*
X43301Y18001D01*
X43301Y17999D01*
X43299Y17999D01*
G37*
%LPD*%
D10*
X16150Y40900D03*
X33650Y40900D03*
D11*
X63500Y101900D03*
X58500Y101900D03*
X53500Y101900D03*
X48500Y101900D03*
X48500Y77900D03*
X53500Y77900D03*
X58500Y77900D03*
X63500Y77900D03*
D12*
X56000Y89900D03*
D13*
X17900Y18000D03*
X43300Y18000D03*
X68700Y18000D03*
X94100Y18000D03*
D14*
X94140Y40800D03*
X78900Y40800D03*
X63660Y40800D03*
D15*
X17900Y39150D02*
X17900Y18000D01*
D16*
X17900Y39150D02*
X16150Y40900D01*
D15*
X48500Y61500D02*
X48500Y77900D01*
X39000Y52000D02*
X23000Y52000D01*
X16150Y45150D01*
X16150Y40900D01*
X39000Y52000D02*
X48500Y61500D01*
X39000Y52000D02*
X50200Y40800D01*
X63660Y40800D01*
X48500Y101900D02*
X39900Y101900D01*
X33000Y95000D01*
D17*
X33000Y95000D03*
D15*
X63500Y101900D02*
X72100Y101900D01*
X79000Y95000D01*
D17*
X79000Y95000D03*
D15*
X58500Y101900D02*
X58500Y109500D01*
X60000Y111000D01*
X71918Y111000D01*
X96000Y58000D02*
X90000Y52000D01*
X84000Y52000D01*
X78900Y46900D01*
D16*
X78900Y40800D01*
D15*
X80918Y102000D02*
X71918Y111000D01*
X80918Y102000D02*
X85000Y102000D01*
X96000Y91000D01*
X96000Y58000D01*
M02*
