G04 EAGLE Gerber X2 export*
G75*
%MOMM*%
%FSLAX34Y34*%
%LPD*%
%AMOC8*
5,1,8,0,0,1.08239X$1,22.5*%
G01*
%ADD10C,0.254000*%


D10*
X0Y0D02*
X112000Y0D01*
X112000Y132000D01*
X0Y132000D01*
X0Y0D01*
X35000Y115719D02*
X34937Y115161D01*
X34812Y114614D01*
X34627Y114084D01*
X34383Y113578D01*
X34084Y113102D01*
X33734Y112663D01*
X33337Y112266D01*
X32898Y111916D01*
X32422Y111617D01*
X31916Y111373D01*
X31386Y111188D01*
X30839Y111063D01*
X30281Y111000D01*
X29719Y111000D01*
X29161Y111063D01*
X28614Y111188D01*
X28084Y111373D01*
X27578Y111617D01*
X27102Y111916D01*
X26663Y112266D01*
X26266Y112663D01*
X25916Y113102D01*
X25617Y113578D01*
X25373Y114084D01*
X25188Y114614D01*
X25063Y115161D01*
X25000Y115719D01*
X25000Y116281D01*
X25063Y116839D01*
X25188Y117386D01*
X25373Y117916D01*
X25617Y118422D01*
X25916Y118898D01*
X26266Y119337D01*
X26663Y119734D01*
X27102Y120084D01*
X27578Y120383D01*
X28084Y120627D01*
X28614Y120812D01*
X29161Y120937D01*
X29719Y121000D01*
X30281Y121000D01*
X30839Y120937D01*
X31386Y120812D01*
X31916Y120627D01*
X32422Y120383D01*
X32898Y120084D01*
X33337Y119734D01*
X33734Y119337D01*
X34084Y118898D01*
X34383Y118422D01*
X34627Y117916D01*
X34812Y117386D01*
X34937Y116839D01*
X35000Y116281D01*
X35000Y115719D01*
X87000Y115719D02*
X86937Y115161D01*
X86812Y114614D01*
X86627Y114084D01*
X86383Y113578D01*
X86084Y113102D01*
X85734Y112663D01*
X85337Y112266D01*
X84898Y111916D01*
X84422Y111617D01*
X83916Y111373D01*
X83386Y111188D01*
X82839Y111063D01*
X82281Y111000D01*
X81719Y111000D01*
X81161Y111063D01*
X80614Y111188D01*
X80084Y111373D01*
X79578Y111617D01*
X79102Y111916D01*
X78663Y112266D01*
X78266Y112663D01*
X77916Y113102D01*
X77617Y113578D01*
X77373Y114084D01*
X77188Y114614D01*
X77063Y115161D01*
X77000Y115719D01*
X77000Y116281D01*
X77063Y116839D01*
X77188Y117386D01*
X77373Y117916D01*
X77617Y118422D01*
X77916Y118898D01*
X78266Y119337D01*
X78663Y119734D01*
X79102Y120084D01*
X79578Y120383D01*
X80084Y120627D01*
X80614Y120812D01*
X81161Y120937D01*
X81719Y121000D01*
X82281Y121000D01*
X82839Y120937D01*
X83386Y120812D01*
X83916Y120627D01*
X84422Y120383D01*
X84898Y120084D01*
X85337Y119734D01*
X85734Y119337D01*
X86084Y118898D01*
X86383Y118422D01*
X86627Y117916D01*
X86812Y117386D01*
X86937Y116839D01*
X87000Y116281D01*
X87000Y115719D01*
X87000Y63719D02*
X86937Y63161D01*
X86812Y62614D01*
X86627Y62084D01*
X86383Y61578D01*
X86084Y61102D01*
X85734Y60663D01*
X85337Y60266D01*
X84898Y59916D01*
X84422Y59617D01*
X83916Y59373D01*
X83386Y59188D01*
X82839Y59063D01*
X82281Y59000D01*
X81719Y59000D01*
X81161Y59063D01*
X80614Y59188D01*
X80084Y59373D01*
X79578Y59617D01*
X79102Y59916D01*
X78663Y60266D01*
X78266Y60663D01*
X77916Y61102D01*
X77617Y61578D01*
X77373Y62084D01*
X77188Y62614D01*
X77063Y63161D01*
X77000Y63719D01*
X77000Y64281D01*
X77063Y64839D01*
X77188Y65386D01*
X77373Y65916D01*
X77617Y66422D01*
X77916Y66898D01*
X78266Y67337D01*
X78663Y67734D01*
X79102Y68084D01*
X79578Y68383D01*
X80084Y68627D01*
X80614Y68812D01*
X81161Y68937D01*
X81719Y69000D01*
X82281Y69000D01*
X82839Y68937D01*
X83386Y68812D01*
X83916Y68627D01*
X84422Y68383D01*
X84898Y68084D01*
X85337Y67734D01*
X85734Y67337D01*
X86084Y66898D01*
X86383Y66422D01*
X86627Y65916D01*
X86812Y65386D01*
X86937Y64839D01*
X87000Y64281D01*
X87000Y63719D01*
X35000Y63719D02*
X34937Y63161D01*
X34812Y62614D01*
X34627Y62084D01*
X34383Y61578D01*
X34084Y61102D01*
X33734Y60663D01*
X33337Y60266D01*
X32898Y59916D01*
X32422Y59617D01*
X31916Y59373D01*
X31386Y59188D01*
X30839Y59063D01*
X30281Y59000D01*
X29719Y59000D01*
X29161Y59063D01*
X28614Y59188D01*
X28084Y59373D01*
X27578Y59617D01*
X27102Y59916D01*
X26663Y60266D01*
X26266Y60663D01*
X25916Y61102D01*
X25617Y61578D01*
X25373Y62084D01*
X25188Y62614D01*
X25063Y63161D01*
X25000Y63719D01*
X25000Y64281D01*
X25063Y64839D01*
X25188Y65386D01*
X25373Y65916D01*
X25617Y66422D01*
X25916Y66898D01*
X26266Y67337D01*
X26663Y67734D01*
X27102Y68084D01*
X27578Y68383D01*
X28084Y68627D01*
X28614Y68812D01*
X29161Y68937D01*
X29719Y69000D01*
X30281Y69000D01*
X30839Y68937D01*
X31386Y68812D01*
X31916Y68627D01*
X32422Y68383D01*
X32898Y68084D01*
X33337Y67734D01*
X33734Y67337D01*
X34084Y66898D01*
X34383Y66422D01*
X34627Y65916D01*
X34812Y65386D01*
X34937Y64839D01*
X35000Y64281D01*
X35000Y63719D01*
X35000Y115719D02*
X34937Y115161D01*
X34812Y114614D01*
X34627Y114084D01*
X34383Y113578D01*
X34084Y113102D01*
X33734Y112663D01*
X33337Y112266D01*
X32898Y111916D01*
X32422Y111617D01*
X31916Y111373D01*
X31386Y111188D01*
X30839Y111063D01*
X30281Y111000D01*
X29719Y111000D01*
X29161Y111063D01*
X28614Y111188D01*
X28084Y111373D01*
X27578Y111617D01*
X27102Y111916D01*
X26663Y112266D01*
X26266Y112663D01*
X25916Y113102D01*
X25617Y113578D01*
X25373Y114084D01*
X25188Y114614D01*
X25063Y115161D01*
X25000Y115719D01*
X25000Y116281D01*
X25063Y116839D01*
X25188Y117386D01*
X25373Y117916D01*
X25617Y118422D01*
X25916Y118898D01*
X26266Y119337D01*
X26663Y119734D01*
X27102Y120084D01*
X27578Y120383D01*
X28084Y120627D01*
X28614Y120812D01*
X29161Y120937D01*
X29719Y121000D01*
X30281Y121000D01*
X30839Y120937D01*
X31386Y120812D01*
X31916Y120627D01*
X32422Y120383D01*
X32898Y120084D01*
X33337Y119734D01*
X33734Y119337D01*
X34084Y118898D01*
X34383Y118422D01*
X34627Y117916D01*
X34812Y117386D01*
X34937Y116839D01*
X35000Y116281D01*
X35000Y115719D01*
X87000Y115719D02*
X86937Y115161D01*
X86812Y114614D01*
X86627Y114084D01*
X86383Y113578D01*
X86084Y113102D01*
X85734Y112663D01*
X85337Y112266D01*
X84898Y111916D01*
X84422Y111617D01*
X83916Y111373D01*
X83386Y111188D01*
X82839Y111063D01*
X82281Y111000D01*
X81719Y111000D01*
X81161Y111063D01*
X80614Y111188D01*
X80084Y111373D01*
X79578Y111617D01*
X79102Y111916D01*
X78663Y112266D01*
X78266Y112663D01*
X77916Y113102D01*
X77617Y113578D01*
X77373Y114084D01*
X77188Y114614D01*
X77063Y115161D01*
X77000Y115719D01*
X77000Y116281D01*
X77063Y116839D01*
X77188Y117386D01*
X77373Y117916D01*
X77617Y118422D01*
X77916Y118898D01*
X78266Y119337D01*
X78663Y119734D01*
X79102Y120084D01*
X79578Y120383D01*
X80084Y120627D01*
X80614Y120812D01*
X81161Y120937D01*
X81719Y121000D01*
X82281Y121000D01*
X82839Y120937D01*
X83386Y120812D01*
X83916Y120627D01*
X84422Y120383D01*
X84898Y120084D01*
X85337Y119734D01*
X85734Y119337D01*
X86084Y118898D01*
X86383Y118422D01*
X86627Y117916D01*
X86812Y117386D01*
X86937Y116839D01*
X87000Y116281D01*
X87000Y115719D01*
X87000Y63719D02*
X86937Y63161D01*
X86812Y62614D01*
X86627Y62084D01*
X86383Y61578D01*
X86084Y61102D01*
X85734Y60663D01*
X85337Y60266D01*
X84898Y59916D01*
X84422Y59617D01*
X83916Y59373D01*
X83386Y59188D01*
X82839Y59063D01*
X82281Y59000D01*
X81719Y59000D01*
X81161Y59063D01*
X80614Y59188D01*
X80084Y59373D01*
X79578Y59617D01*
X79102Y59916D01*
X78663Y60266D01*
X78266Y60663D01*
X77916Y61102D01*
X77617Y61578D01*
X77373Y62084D01*
X77188Y62614D01*
X77063Y63161D01*
X77000Y63719D01*
X77000Y64281D01*
X77063Y64839D01*
X77188Y65386D01*
X77373Y65916D01*
X77617Y66422D01*
X77916Y66898D01*
X78266Y67337D01*
X78663Y67734D01*
X79102Y68084D01*
X79578Y68383D01*
X80084Y68627D01*
X80614Y68812D01*
X81161Y68937D01*
X81719Y69000D01*
X82281Y69000D01*
X82839Y68937D01*
X83386Y68812D01*
X83916Y68627D01*
X84422Y68383D01*
X84898Y68084D01*
X85337Y67734D01*
X85734Y67337D01*
X86084Y66898D01*
X86383Y66422D01*
X86627Y65916D01*
X86812Y65386D01*
X86937Y64839D01*
X87000Y64281D01*
X87000Y63719D01*
X35000Y63719D02*
X34937Y63161D01*
X34812Y62614D01*
X34627Y62084D01*
X34383Y61578D01*
X34084Y61102D01*
X33734Y60663D01*
X33337Y60266D01*
X32898Y59916D01*
X32422Y59617D01*
X31916Y59373D01*
X31386Y59188D01*
X30839Y59063D01*
X30281Y59000D01*
X29719Y59000D01*
X29161Y59063D01*
X28614Y59188D01*
X28084Y59373D01*
X27578Y59617D01*
X27102Y59916D01*
X26663Y60266D01*
X26266Y60663D01*
X25916Y61102D01*
X25617Y61578D01*
X25373Y62084D01*
X25188Y62614D01*
X25063Y63161D01*
X25000Y63719D01*
X25000Y64281D01*
X25063Y64839D01*
X25188Y65386D01*
X25373Y65916D01*
X25617Y66422D01*
X25916Y66898D01*
X26266Y67337D01*
X26663Y67734D01*
X27102Y68084D01*
X27578Y68383D01*
X28084Y68627D01*
X28614Y68812D01*
X29161Y68937D01*
X29719Y69000D01*
X30281Y69000D01*
X30839Y68937D01*
X31386Y68812D01*
X31916Y68627D01*
X32422Y68383D01*
X32898Y68084D01*
X33337Y67734D01*
X33734Y67337D01*
X34084Y66898D01*
X34383Y66422D01*
X34627Y65916D01*
X34812Y65386D01*
X34937Y64839D01*
X35000Y64281D01*
X35000Y63719D01*
M02*
