G04 EAGLE Gerber X2 export*
G75*
%MOMM*%
%FSLAX34Y34*%
%LPD*%
%AMOC8*
5,1,8,0,0,1.08239X$1,22.5*%
G01*
%ADD10C,0.076200*%
%ADD11C,0.250000*%
%ADD12C,0.127000*%
%ADD13C,0.152400*%


D10*
X9458Y50781D02*
X7369Y50781D01*
X7280Y50783D01*
X7192Y50789D01*
X7104Y50798D01*
X7016Y50811D01*
X6929Y50828D01*
X6843Y50848D01*
X6758Y50873D01*
X6673Y50900D01*
X6590Y50932D01*
X6509Y50966D01*
X6429Y51005D01*
X6351Y51046D01*
X6274Y51091D01*
X6200Y51139D01*
X6127Y51190D01*
X6057Y51244D01*
X5990Y51302D01*
X5924Y51362D01*
X5862Y51424D01*
X5802Y51490D01*
X5744Y51557D01*
X5690Y51627D01*
X5639Y51700D01*
X5591Y51774D01*
X5546Y51851D01*
X5505Y51929D01*
X5466Y52009D01*
X5432Y52090D01*
X5400Y52173D01*
X5373Y52258D01*
X5348Y52343D01*
X5328Y52429D01*
X5311Y52516D01*
X5298Y52604D01*
X5289Y52692D01*
X5283Y52780D01*
X5281Y52869D01*
X5281Y58091D01*
X5283Y58182D01*
X5289Y58273D01*
X5299Y58364D01*
X5313Y58454D01*
X5330Y58543D01*
X5352Y58631D01*
X5378Y58719D01*
X5407Y58805D01*
X5440Y58890D01*
X5477Y58973D01*
X5517Y59055D01*
X5561Y59135D01*
X5608Y59213D01*
X5659Y59289D01*
X5712Y59362D01*
X5769Y59433D01*
X5830Y59502D01*
X5893Y59567D01*
X5958Y59630D01*
X6027Y59690D01*
X6098Y59748D01*
X6171Y59801D01*
X6247Y59852D01*
X6325Y59899D01*
X6405Y59943D01*
X6487Y59983D01*
X6570Y60020D01*
X6655Y60053D01*
X6741Y60082D01*
X6829Y60108D01*
X6917Y60130D01*
X7006Y60147D01*
X7096Y60161D01*
X7187Y60171D01*
X7278Y60177D01*
X7369Y60179D01*
X9458Y60179D01*
X12927Y58091D02*
X15537Y60179D01*
X15537Y50781D01*
X12927Y50781D02*
X18148Y50781D01*
D11*
X68750Y105900D02*
X68752Y105970D01*
X68758Y106040D01*
X68768Y106109D01*
X68781Y106178D01*
X68799Y106246D01*
X68820Y106313D01*
X68845Y106378D01*
X68874Y106442D01*
X68906Y106505D01*
X68942Y106565D01*
X68981Y106623D01*
X69023Y106679D01*
X69068Y106733D01*
X69116Y106784D01*
X69167Y106832D01*
X69221Y106877D01*
X69277Y106919D01*
X69335Y106958D01*
X69395Y106994D01*
X69458Y107026D01*
X69522Y107055D01*
X69587Y107080D01*
X69654Y107101D01*
X69722Y107119D01*
X69791Y107132D01*
X69860Y107142D01*
X69930Y107148D01*
X70000Y107150D01*
X70070Y107148D01*
X70140Y107142D01*
X70209Y107132D01*
X70278Y107119D01*
X70346Y107101D01*
X70413Y107080D01*
X70478Y107055D01*
X70542Y107026D01*
X70605Y106994D01*
X70665Y106958D01*
X70723Y106919D01*
X70779Y106877D01*
X70833Y106832D01*
X70884Y106784D01*
X70932Y106733D01*
X70977Y106679D01*
X71019Y106623D01*
X71058Y106565D01*
X71094Y106505D01*
X71126Y106442D01*
X71155Y106378D01*
X71180Y106313D01*
X71201Y106246D01*
X71219Y106178D01*
X71232Y106109D01*
X71242Y106040D01*
X71248Y105970D01*
X71250Y105900D01*
X71248Y105830D01*
X71242Y105760D01*
X71232Y105691D01*
X71219Y105622D01*
X71201Y105554D01*
X71180Y105487D01*
X71155Y105422D01*
X71126Y105358D01*
X71094Y105295D01*
X71058Y105235D01*
X71019Y105177D01*
X70977Y105121D01*
X70932Y105067D01*
X70884Y105016D01*
X70833Y104968D01*
X70779Y104923D01*
X70723Y104881D01*
X70665Y104842D01*
X70605Y104806D01*
X70542Y104774D01*
X70478Y104745D01*
X70413Y104720D01*
X70346Y104699D01*
X70278Y104681D01*
X70209Y104668D01*
X70140Y104658D01*
X70070Y104652D01*
X70000Y104650D01*
X69930Y104652D01*
X69860Y104658D01*
X69791Y104668D01*
X69722Y104681D01*
X69654Y104699D01*
X69587Y104720D01*
X69522Y104745D01*
X69458Y104774D01*
X69395Y104806D01*
X69335Y104842D01*
X69277Y104881D01*
X69221Y104923D01*
X69167Y104968D01*
X69116Y105016D01*
X69068Y105067D01*
X69023Y105121D01*
X68981Y105177D01*
X68942Y105235D01*
X68906Y105295D01*
X68874Y105358D01*
X68845Y105422D01*
X68820Y105487D01*
X68799Y105554D01*
X68781Y105622D01*
X68768Y105691D01*
X68758Y105760D01*
X68752Y105830D01*
X68750Y105900D01*
D10*
X44279Y114301D02*
X44279Y123699D01*
X44279Y119522D02*
X49500Y119522D01*
X49500Y123699D02*
X49500Y114301D01*
X54120Y114301D02*
X54120Y123699D01*
X57252Y118478D01*
X60385Y123699D01*
X60385Y114301D01*
X64700Y121611D02*
X67311Y123699D01*
X67311Y114301D01*
X69921Y114301D02*
X64700Y114301D01*
D12*
X5200Y28160D02*
X5200Y7840D01*
X58540Y30700D02*
X78860Y30700D01*
X58540Y30700D02*
X56000Y28160D01*
X58540Y5300D02*
X78860Y5300D01*
X58540Y5300D02*
X56000Y7840D01*
X78860Y5300D02*
X81400Y7840D01*
X81400Y28160D02*
X78860Y30700D01*
X56000Y28160D02*
X53460Y30700D01*
X33140Y30700D01*
X30600Y28160D01*
X28060Y30700D01*
X7740Y30700D02*
X5200Y28160D01*
X7740Y30700D02*
X28060Y30700D01*
X53460Y5300D02*
X56000Y7840D01*
X33140Y5300D02*
X30600Y7840D01*
X28060Y5300D01*
X7740Y5300D02*
X5200Y7840D01*
X33140Y5300D02*
X53460Y5300D01*
X28060Y5300D02*
X7740Y5300D01*
X106800Y7840D02*
X106800Y28160D01*
X104260Y30700D01*
X106800Y7840D02*
X104260Y5300D01*
X83940Y5300D02*
X81400Y7840D01*
X81400Y28160D02*
X83940Y30700D01*
X104260Y30700D01*
X104260Y5300D02*
X83940Y5300D01*
D10*
X2547Y21937D02*
X501Y20300D01*
X2547Y21937D02*
X2547Y14571D01*
X501Y14571D02*
X4593Y14571D01*
X98711Y58714D02*
X106021Y58714D01*
X106021Y58713D02*
X106110Y58711D01*
X106198Y58705D01*
X106286Y58696D01*
X106374Y58683D01*
X106461Y58666D01*
X106547Y58646D01*
X106632Y58621D01*
X106717Y58594D01*
X106800Y58562D01*
X106881Y58528D01*
X106961Y58489D01*
X107039Y58448D01*
X107116Y58403D01*
X107190Y58355D01*
X107263Y58304D01*
X107333Y58250D01*
X107400Y58192D01*
X107466Y58132D01*
X107528Y58070D01*
X107588Y58004D01*
X107646Y57937D01*
X107700Y57867D01*
X107751Y57794D01*
X107799Y57720D01*
X107844Y57643D01*
X107885Y57565D01*
X107924Y57485D01*
X107958Y57404D01*
X107990Y57321D01*
X108017Y57236D01*
X108042Y57151D01*
X108062Y57065D01*
X108079Y56978D01*
X108092Y56890D01*
X108101Y56802D01*
X108107Y56714D01*
X108109Y56625D01*
X108109Y55581D01*
X108109Y63341D02*
X98711Y63341D01*
X98711Y65952D01*
X98713Y66053D01*
X98719Y66154D01*
X98729Y66255D01*
X98742Y66355D01*
X98760Y66455D01*
X98781Y66554D01*
X98807Y66652D01*
X98836Y66749D01*
X98868Y66845D01*
X98905Y66939D01*
X98945Y67032D01*
X98989Y67124D01*
X99036Y67213D01*
X99087Y67301D01*
X99141Y67387D01*
X99198Y67470D01*
X99258Y67552D01*
X99322Y67630D01*
X99388Y67707D01*
X99458Y67780D01*
X99530Y67851D01*
X99605Y67919D01*
X99683Y67984D01*
X99763Y68046D01*
X99845Y68105D01*
X99930Y68161D01*
X100017Y68213D01*
X100105Y68262D01*
X100196Y68308D01*
X100288Y68349D01*
X100382Y68388D01*
X100477Y68422D01*
X100573Y68453D01*
X100671Y68480D01*
X100769Y68504D01*
X100869Y68523D01*
X100969Y68539D01*
X101069Y68551D01*
X101170Y68559D01*
X101271Y68563D01*
X101373Y68563D01*
X101474Y68559D01*
X101575Y68551D01*
X101675Y68539D01*
X101775Y68523D01*
X101875Y68504D01*
X101973Y68480D01*
X102071Y68453D01*
X102167Y68422D01*
X102262Y68388D01*
X102356Y68349D01*
X102448Y68308D01*
X102539Y68262D01*
X102628Y68213D01*
X102714Y68161D01*
X102799Y68105D01*
X102881Y68046D01*
X102961Y67984D01*
X103039Y67919D01*
X103114Y67851D01*
X103186Y67780D01*
X103256Y67707D01*
X103322Y67630D01*
X103386Y67552D01*
X103446Y67470D01*
X103503Y67387D01*
X103557Y67301D01*
X103608Y67213D01*
X103655Y67124D01*
X103699Y67032D01*
X103739Y66939D01*
X103776Y66845D01*
X103808Y66749D01*
X103837Y66652D01*
X103863Y66554D01*
X103884Y66455D01*
X103902Y66355D01*
X103915Y66255D01*
X103925Y66154D01*
X103931Y66053D01*
X103933Y65952D01*
X103932Y65952D02*
X103932Y63341D01*
X100799Y72049D02*
X98711Y74660D01*
X108109Y74660D01*
X108109Y77270D02*
X108109Y72049D01*
D13*
X100490Y50960D02*
X57310Y50960D01*
X54770Y33180D02*
X54772Y33080D01*
X54778Y32981D01*
X54788Y32881D01*
X54801Y32783D01*
X54819Y32684D01*
X54840Y32587D01*
X54865Y32491D01*
X54894Y32395D01*
X54927Y32301D01*
X54963Y32208D01*
X55003Y32117D01*
X55047Y32027D01*
X55094Y31939D01*
X55144Y31853D01*
X55198Y31769D01*
X55255Y31687D01*
X55315Y31608D01*
X55379Y31530D01*
X55445Y31456D01*
X55514Y31384D01*
X55586Y31315D01*
X55660Y31249D01*
X55738Y31185D01*
X55817Y31125D01*
X55899Y31068D01*
X55983Y31014D01*
X56069Y30964D01*
X56157Y30917D01*
X56247Y30873D01*
X56338Y30833D01*
X56431Y30797D01*
X56525Y30764D01*
X56621Y30735D01*
X56717Y30710D01*
X56814Y30689D01*
X56913Y30671D01*
X57011Y30658D01*
X57111Y30648D01*
X57210Y30642D01*
X57310Y30640D01*
X100490Y30640D02*
X100590Y30642D01*
X100689Y30648D01*
X100789Y30658D01*
X100887Y30671D01*
X100986Y30689D01*
X101083Y30710D01*
X101179Y30735D01*
X101275Y30764D01*
X101369Y30797D01*
X101462Y30833D01*
X101553Y30873D01*
X101643Y30917D01*
X101731Y30964D01*
X101817Y31014D01*
X101901Y31068D01*
X101983Y31125D01*
X102062Y31185D01*
X102140Y31249D01*
X102214Y31315D01*
X102286Y31384D01*
X102355Y31456D01*
X102421Y31530D01*
X102485Y31608D01*
X102545Y31687D01*
X102602Y31769D01*
X102656Y31853D01*
X102706Y31939D01*
X102753Y32027D01*
X102797Y32117D01*
X102837Y32208D01*
X102873Y32301D01*
X102906Y32395D01*
X102935Y32491D01*
X102960Y32587D01*
X102981Y32684D01*
X102999Y32783D01*
X103012Y32881D01*
X103022Y32981D01*
X103028Y33080D01*
X103030Y33180D01*
X103030Y48420D02*
X103028Y48520D01*
X103022Y48619D01*
X103012Y48719D01*
X102999Y48817D01*
X102981Y48916D01*
X102960Y49013D01*
X102935Y49109D01*
X102906Y49205D01*
X102873Y49299D01*
X102837Y49392D01*
X102797Y49483D01*
X102753Y49573D01*
X102706Y49661D01*
X102656Y49747D01*
X102602Y49831D01*
X102545Y49913D01*
X102485Y49992D01*
X102421Y50070D01*
X102355Y50144D01*
X102286Y50216D01*
X102214Y50285D01*
X102140Y50351D01*
X102062Y50415D01*
X101983Y50475D01*
X101901Y50532D01*
X101817Y50586D01*
X101731Y50636D01*
X101643Y50683D01*
X101553Y50727D01*
X101462Y50767D01*
X101369Y50803D01*
X101275Y50836D01*
X101179Y50865D01*
X101083Y50890D01*
X100986Y50911D01*
X100887Y50929D01*
X100789Y50942D01*
X100689Y50952D01*
X100590Y50958D01*
X100490Y50960D01*
X57310Y50960D02*
X57210Y50958D01*
X57111Y50952D01*
X57011Y50942D01*
X56913Y50929D01*
X56814Y50911D01*
X56717Y50890D01*
X56621Y50865D01*
X56525Y50836D01*
X56431Y50803D01*
X56338Y50767D01*
X56247Y50727D01*
X56157Y50683D01*
X56069Y50636D01*
X55983Y50586D01*
X55899Y50532D01*
X55817Y50475D01*
X55738Y50415D01*
X55660Y50351D01*
X55586Y50285D01*
X55514Y50216D01*
X55445Y50144D01*
X55379Y50070D01*
X55315Y49992D01*
X55255Y49913D01*
X55198Y49831D01*
X55144Y49747D01*
X55094Y49661D01*
X55047Y49573D01*
X55003Y49483D01*
X54963Y49392D01*
X54927Y49299D01*
X54894Y49205D01*
X54865Y49109D01*
X54840Y49013D01*
X54819Y48916D01*
X54801Y48817D01*
X54788Y48719D01*
X54778Y48619D01*
X54772Y48520D01*
X54770Y48420D01*
X54770Y33180D01*
X103030Y33180D02*
X103030Y48420D01*
X100490Y30640D02*
X57310Y30640D01*
D10*
X53321Y56321D02*
X53410Y56323D01*
X53498Y56329D01*
X53586Y56338D01*
X53674Y56351D01*
X53761Y56368D01*
X53847Y56388D01*
X53932Y56413D01*
X54017Y56440D01*
X54100Y56472D01*
X54181Y56506D01*
X54261Y56545D01*
X54339Y56586D01*
X54416Y56631D01*
X54490Y56679D01*
X54563Y56730D01*
X54633Y56784D01*
X54700Y56842D01*
X54766Y56902D01*
X54828Y56964D01*
X54888Y57030D01*
X54946Y57097D01*
X55000Y57167D01*
X55051Y57240D01*
X55099Y57314D01*
X55144Y57391D01*
X55185Y57469D01*
X55224Y57549D01*
X55258Y57630D01*
X55290Y57713D01*
X55317Y57798D01*
X55342Y57883D01*
X55362Y57969D01*
X55379Y58056D01*
X55392Y58144D01*
X55401Y58232D01*
X55407Y58320D01*
X55409Y58409D01*
X53321Y56321D02*
X53192Y56323D01*
X53063Y56329D01*
X52934Y56338D01*
X52806Y56351D01*
X52678Y56368D01*
X52551Y56389D01*
X52424Y56413D01*
X52298Y56441D01*
X52173Y56473D01*
X52049Y56508D01*
X51926Y56547D01*
X51804Y56590D01*
X51684Y56636D01*
X51565Y56686D01*
X51447Y56739D01*
X51331Y56795D01*
X51217Y56855D01*
X51104Y56918D01*
X50994Y56985D01*
X50885Y57054D01*
X50779Y57127D01*
X50674Y57203D01*
X50572Y57282D01*
X50473Y57364D01*
X50375Y57448D01*
X50280Y57536D01*
X50188Y57626D01*
X50449Y63631D02*
X50451Y63720D01*
X50457Y63808D01*
X50466Y63896D01*
X50479Y63984D01*
X50496Y64071D01*
X50516Y64157D01*
X50541Y64242D01*
X50568Y64327D01*
X50600Y64410D01*
X50634Y64491D01*
X50673Y64571D01*
X50714Y64649D01*
X50759Y64726D01*
X50807Y64800D01*
X50858Y64873D01*
X50912Y64943D01*
X50970Y65010D01*
X51030Y65076D01*
X51092Y65138D01*
X51158Y65198D01*
X51225Y65256D01*
X51295Y65310D01*
X51368Y65361D01*
X51442Y65409D01*
X51519Y65454D01*
X51597Y65495D01*
X51677Y65534D01*
X51758Y65568D01*
X51841Y65600D01*
X51926Y65627D01*
X52011Y65652D01*
X52097Y65672D01*
X52184Y65689D01*
X52272Y65702D01*
X52360Y65711D01*
X52448Y65717D01*
X52537Y65719D01*
X52657Y65717D01*
X52777Y65712D01*
X52897Y65702D01*
X53016Y65690D01*
X53135Y65673D01*
X53253Y65653D01*
X53371Y65629D01*
X53487Y65602D01*
X53603Y65571D01*
X53718Y65537D01*
X53832Y65499D01*
X53945Y65457D01*
X54056Y65412D01*
X54166Y65364D01*
X54274Y65313D01*
X54381Y65258D01*
X54486Y65200D01*
X54589Y65138D01*
X54690Y65074D01*
X54790Y65006D01*
X54887Y64936D01*
X51493Y61804D02*
X51415Y61852D01*
X51339Y61904D01*
X51266Y61958D01*
X51195Y62016D01*
X51126Y62077D01*
X51060Y62141D01*
X50997Y62208D01*
X50937Y62277D01*
X50880Y62349D01*
X50826Y62423D01*
X50776Y62500D01*
X50728Y62579D01*
X50685Y62659D01*
X50644Y62742D01*
X50608Y62826D01*
X50575Y62911D01*
X50546Y62998D01*
X50520Y63087D01*
X50498Y63176D01*
X50481Y63266D01*
X50467Y63356D01*
X50457Y63448D01*
X50451Y63539D01*
X50449Y63631D01*
X54365Y60236D02*
X54443Y60188D01*
X54519Y60136D01*
X54592Y60082D01*
X54663Y60024D01*
X54732Y59963D01*
X54798Y59899D01*
X54861Y59832D01*
X54921Y59763D01*
X54978Y59691D01*
X55032Y59617D01*
X55082Y59540D01*
X55130Y59461D01*
X55173Y59381D01*
X55214Y59298D01*
X55250Y59214D01*
X55283Y59129D01*
X55312Y59042D01*
X55338Y58953D01*
X55360Y58864D01*
X55377Y58774D01*
X55391Y58684D01*
X55401Y58592D01*
X55407Y58501D01*
X55409Y58409D01*
X54365Y60237D02*
X51493Y61803D01*
X61236Y58409D02*
X61236Y65719D01*
X61236Y58409D02*
X61234Y58320D01*
X61228Y58232D01*
X61219Y58144D01*
X61206Y58056D01*
X61189Y57969D01*
X61169Y57883D01*
X61144Y57798D01*
X61117Y57713D01*
X61085Y57630D01*
X61051Y57549D01*
X61012Y57469D01*
X60971Y57391D01*
X60926Y57314D01*
X60878Y57240D01*
X60827Y57167D01*
X60773Y57097D01*
X60715Y57030D01*
X60655Y56964D01*
X60593Y56902D01*
X60527Y56842D01*
X60460Y56784D01*
X60390Y56730D01*
X60317Y56679D01*
X60243Y56631D01*
X60166Y56586D01*
X60088Y56545D01*
X60008Y56506D01*
X59927Y56472D01*
X59844Y56440D01*
X59759Y56413D01*
X59674Y56388D01*
X59588Y56368D01*
X59501Y56351D01*
X59413Y56338D01*
X59325Y56329D01*
X59237Y56323D01*
X59148Y56321D01*
X58104Y56321D01*
X65428Y63631D02*
X68038Y65719D01*
X68038Y56321D01*
X65428Y56321D02*
X70649Y56321D01*
M02*
